HIERARCHY
ROOT Hips
{
     OFFSET 1.88212 96.90440 -13.34250
     CHANNELS 6 Xposition Yposition Zposition Zrotation Xrotation Yrotation
     JOINT Spine
     {
          OFFSET 0.00000 11.89050 0.00000
          CHANNELS 3 Zrotation Xrotation Yrotation
          JOINT Spine1
          {
               OFFSET -0.00000 25.65740 0.12766
               CHANNELS 3 Zrotation Xrotation Yrotation
               JOINT HEad
               {
                    OFFSET 0.00000 8.73416 0.01134
                    CHANNELS 3 Zrotation Xrotation Yrotation
                    End Site
                    {
                         OFFSET -0.29000 12.77420 2.51395
                    }
               }
               JOINT LeftShoulder1
               {
                    OFFSET 8.99000 -0.36225 -0.22000
                    CHANNELS 3 Zrotation Xrotation Yrotation
                    JOINT LeftArm
                    {
                         OFFSET 10.28270 -0.00338 0.32212
                         CHANNELS 3 Zrotation Xrotation Yrotation
                         JOINT LeftForeArm
                         {
                              OFFSET 32.76690 0.09914 -1.42434
                              CHANNELS 3 Zrotation Xrotation Yrotation
                              JOINT LeftHand
                              {
                                   OFFSET 27.56430 0.08536 1.02216
                                   CHANNELS 3 Zrotation Xrotation Yrotation
                                   End Site
                                   {
                                        OFFSET 16.74430 -0.60000 1.50291
                                   }
                              }
                         }
                    }
               }
               JOINT RightShoulder
               {
                    OFFSET -8.99000 -0.36225 -0.22000
                    CHANNELS 3 Zrotation Xrotation Yrotation
                    JOINT RightArm
                    {
                         OFFSET -10.28270 -0.00338 0.32212
                         CHANNELS 3 Zrotation Xrotation Yrotation
                         JOINT RightForeArm
                         {
                              OFFSET -32.89710 0.09914 -1.42434
                              CHANNELS 3 Zrotation Xrotation Yrotation
                              JOINT RightHand
                              {
                                   OFFSET -27.49210 0.08536 1.02216
                                   CHANNELS 3 Zrotation Xrotation Yrotation
                                   End Site
                                   {
                                        OFFSET -16.63120 -0.60000 1.50291
                                   }
                              }
                         }
                    }
               }
          }
     }
     JOINT LeftUpLeg
     {
          OFFSET 8.94580 -8.66707 0.10165
          CHANNELS 3 Zrotation Xrotation Yrotation
          JOINT LeftLeg
          {
               OFFSET 0.00000 -44.42270 1.37270
               CHANNELS 3 Zrotation Xrotation Yrotation
               JOINT LeftFoot
               {
                    OFFSET -0.25355 -42.09240 -1.46059
                    CHANNELS 3 Zrotation Xrotation Yrotation
                    JOINT LeftToes
                    {
                         OFFSET -0.04000 -4.41509 8.49910
                         CHANNELS 3 Zrotation Xrotation Yrotation
                         End Site
                         {
                              OFFSET 0.08000 -0.04745 9.77979
                         }
                    }
               }
          }
     }
     JOINT RightUpLeg
     {
          OFFSET -8.94580 -8.66707 0.10165
          CHANNELS 3 Zrotation Xrotation Yrotation
          JOINT RightLeg
          {
               OFFSET 0.00000 -44.42270 1.37270
               CHANNELS 3 Zrotation Xrotation Yrotation
               JOINT RightFoot
               {
                    OFFSET 0.25355 -42.09240 -1.46059
                    CHANNELS 3 Zrotation Xrotation Yrotation
                    JOINT RightToes
                    {
                         OFFSET 0.04000 -4.41509 8.49910
                         CHANNELS 3 Zrotation Xrotation Yrotation
                         End Site
                         {
                              OFFSET -0.08000 -0.13745 9.77979
                         }
                    }
               }
          }
     }
}
MOTION
Frames: 8
Frame Time: 0.01667
49.56302 78.53183 -123.25427 10.64520 1.91305 -26.34162 -5.66913 24.01941 9.83887 0.00840 0.03179 -0.00665 -17.29535 -5.21843 38.06665 5.78269 22.17472 -1.56554 104.61734 -76.94952 156.38777 -82.74718 67.42222 -73.99262 5.41695 9.84363 -1.03884 19.87953 17.23558 1.59701 64.41019 -19.93873 68.49552 25.88478 42.51645 109.02979 -6.01061 10.23913 -0.15468 1.77177 -51.40876 14.08185 29.89076 50.11935 -24.26606 2.13320 0.00268 0.00104 -25.16978 -12.85392 -3.21329 -21.22569 -31.25070 8.94868 -2.28521 69.43523 -2.03206 -21.92406 0.00510 0.00399 35.18687 -49.68675 1.91828 
49.11435 79.62376 -122.35635 10.19901 1.96679 -25.06189 -5.33873 22.43610 9.59462 0.00884 0.02829 -0.00564 -17.13421 -3.89244 37.63841 6.37012 22.23363 -1.91611 104.49102 -77.31266 156.23930 -81.93668 67.01171 -75.03487 5.27109 10.03501 -0.93500 20.63863 17.88401 0.84756 64.32575 -19.44794 69.24486 25.63586 42.68965 108.98100 -6.05830 9.98054 -0.08677 1.63417 -49.78100 13.68751 27.87685 48.96954 -23.61178 2.99776 0.00264 0.00009 -24.82407 -12.27090 -2.94520 -21.54657 -28.91385 8.20677 0.24576 67.26882 -3.83578 -22.56779 0.00518 0.00510 35.05793 -47.75978 1.82390 
48.67312 80.68427 -121.50059 9.75135 2.01591 -23.84645 -4.97892 21.16143 9.27576 0.01154 0.02295 -0.00807 -17.08598 -2.82477 37.14459 6.70622 21.97257 -2.19218 104.23148 -77.51960 155.89651 -81.22042 66.62907 -75.91499 5.26675 10.01754 -0.77111 21.52785 18.18773 -0.01048 62.83989 -17.47855 73.26926 26.80716 40.21410 105.56366 -6.02457 10.08206 -0.21956 1.65253 -48.09923 13.42122 25.85356 47.66193 -22.98950 3.80399 0.00243 -0.00076 -24.53562 -11.85484 -2.66784 -21.76256 -26.55974 7.46461 2.11651 64.91290 -4.87098 -23.16433 0.00496 0.00574 34.57690 -46.89479 1.41321 
48.26150 81.78627 -120.68744 9.30641 2.04651 -22.69890 -4.59329 20.14862 8.91235 0.01111 0.01947 -0.00637 -17.12968 -1.96833 36.58941 6.86158 21.42049 -2.27242 103.97617 -77.77488 155.53191 -80.57848 66.28178 -76.70576 5.13293 10.06970 -0.82928 22.20676 18.16640 -0.44890 61.65486 -16.38428 75.35730 27.10611 39.09815 104.20300 -6.22379 10.09278 -0.25769 1.79091 -46.37317 13.24374 23.83281 46.20679 -22.39563 4.54768 0.00229 -0.00156 -24.30257 -11.34834 -2.27119 -21.87204 -24.17845 6.73271 3.39115 62.38290 -5.25635 -23.67733 0.00431 0.00598 34.39085 -45.34920 1.16209 
47.86209 82.85524 -119.92733 8.86919 2.05118 -21.62712 -4.19857 19.35568 8.52372 0.00895 0.01698 -0.00534 -17.26116 -1.29208 35.99704 6.78436 20.66002 -2.43893 105.05825 -77.90618 156.66592 -74.98462 63.10324 -84.89696 17.74755 11.47651 -11.26145 22.54025 17.89326 -0.55950 60.90667 -15.68685 76.32271 26.99719 38.75328 103.86813 -6.43125 10.05411 -0.40403 2.02520 -44.62722 13.15118 21.87728 44.62352 -21.87807 5.20916 0.00209 -0.00216 -23.95512 -10.72278 -1.88827 -21.88129 -21.78643 6.02985 4.23923 59.71295 -5.18104 -24.10914 0.00355 0.00580 34.11538 -44.19084 0.35715 
47.47832 83.87607 -119.22740 8.43756 2.02573 -20.64301 -3.81780 18.74204 8.14052 0.00625 0.01472 -0.00439 -17.45637 -0.75813 35.37182 6.49564 19.77296 -2.53213 107.50877 -78.05331 159.23293 -71.93182 61.95633 -88.62483 3.31053 10.79207 -0.99857 22.69491 17.46626 -0.44535 60.40051 -15.25698 76.72695 26.69580 38.79615 103.96114 -6.48760 10.21633 -0.61475 2.35183 -42.88688 13.12672 20.00321 42.96225 -21.43542 5.78133 0.00177 -0.00246 -23.49083 -9.65403 -1.42685 -21.79381 -19.40706 5.37704 4.79213 56.94139 -4.83512 -24.46315 0.00251 0.00556 33.71673 -42.91000 0.12482 
47.10848 84.85109 -118.58238 8.01501 1.96445 -19.74436 -3.44523 18.26953 7.77754 0.00516 0.01198 -0.00344 -17.70490 -0.34005 34.72451 6.25707 18.79135 -2.36725 110.04221 -78.36754 161.87267 -70.15546 61.51000 -90.44839 10.38813 10.57719 -5.26231 22.58963 16.91078 -0.17713 60.17986 -14.91521 76.84153 26.31783 39.00592 104.22366 -6.66282 10.09361 -0.63678 2.73650 -41.16239 13.15094 18.24895 41.24633 -21.08483 6.25223 0.00152 -0.00244 -23.00809 -8.69948 -0.98007 -21.62459 -17.05674 4.77949 5.13888 54.11404 -4.33343 -24.74370 0.00158 0.00484 33.18754 -41.77133 -0.93793 
46.75272 85.77184 -117.98785 7.60242 1.87142 -18.92667 -3.08091 17.90047 7.44928 0.00403 0.00991 -0.00234 -18.00228 0.01905 34.05733 5.95823 17.73844 -2.06505 112.62392 -78.73786 164.45541 -69.05887 61.64888 -91.14905 2.68959 9.95141 -0.04731 22.49520 16.28521 0.22516 59.95636 -14.72445 76.79737 25.90594 39.23809 104.52017 -6.72165 10.27870 -0.74819 3.15296 -39.46482 13.19947 16.62593 39.50089 -20.82341 6.62018 0.00139 -0.00218 -22.63722 -7.97410 -0.40818 -21.38268 -14.75491 4.22812 5.32157 51.27551 -3.74471 -24.94733 0.00078 0.00397 32.36913 -40.79186 -2.17659 
